<?xml version="1.0" encoding="UTF-8"?>
<svg id="_Слой_1" data-name="Слой 1" xmlns="http://www.w3.org/2000/svg" viewBox="0 0 640 640">
  <defs>
    <style>
      .cls-1 {
        fill: #fff;
        stroke-width: 0px;
      }
    </style>
  </defs>
  <path id="_ЦВЕТ" data-name="ЦВЕТ" class="cls-1" d="m165.89,221.35c-1.05.14-2.08.29-3.1.45-25.59,4.04-43.49,13.15-49.98,27.23-.46.98-.85,1.98-1.19,3-.92,2.76-1.4,5.62-1.47,8.58-.54,21.67,21.05,48.13,57.3,73.49-.1-1.27-.18-2.55-.24-3.83-.07-1.4-.12-2.8-.15-4.21-.03-1.11-.04-2.23-.04-3.35,0-5.47.29-10.87.86-16.21.27-2.54.6-5.07,1-7.57,4.08-26.06,14.75-49.93,30.25-69.85.67-.85,1.34-1.7,2.03-2.54,1.1-1.36,2.24-2.7,3.41-4.02.32-.38.65-.76.99-1.13.54-.61,1.08-1.21,1.63-1.8-15.17-.53-29.06.06-41.3,1.76Zm0,0c-1.05.14-2.08.29-3.1.45-25.59,4.04-43.49,13.15-49.98,27.23-.46.98-.85,1.98-1.19,3-.92,2.76-1.4,5.62-1.47,8.58-.54,21.67,21.05,48.13,57.3,73.49-.1-1.27-.18-2.55-.24-3.83-.07-1.4-.12-2.8-.15-4.21-.03-1.11-.04-2.23-.04-3.35,0-5.47.29-10.87.86-16.21.27-2.54.6-5.07,1-7.57,4.08-26.06,14.75-49.93,30.25-69.85.67-.85,1.34-1.7,2.03-2.54,1.1-1.36,2.24-2.7,3.41-4.02.32-.38.65-.76.99-1.13.54-.61,1.08-1.21,1.63-1.8-15.17-.53-29.06.06-41.3,1.76Zm305.43,86.16c.14,1.3.25,2.61.34,3.92.21,2.75.34,5.52.39,8.3.02.99.03,1.98.03,2.98,0,7.66-.57,15.19-1.66,22.54-.36,2.45-.78,4.89-1.26,7.3-.14.69-.28,1.38-.43,2.06-.35,1.67-.73,3.32-1.14,4.97-5.53,22.3-15.97,42.66-30.11,59.87-.8.98-1.61,1.94-2.44,2.9,22.4.55,41.9-1.39,57.24-5.79.09-.02.18-.04.27-.07,1.07-.31,2.11-.63,3.13-.96,13.31-4.32,23.14-10.66,28.54-18.99,1.38-2.12,2.46-4.36,3.25-6.73.64-1.92,1.06-3.88,1.29-5.89,2.51-22.22-19.48-49.92-57.44-76.41Zm0,0c.14,1.3.25,2.61.34,3.92.21,2.75.34,5.52.39,8.3.02.99.03,1.98.03,2.98,0,7.66-.57,15.19-1.66,22.54-.36,2.45-.78,4.89-1.26,7.3-.14.69-.28,1.38-.43,2.06-.35,1.67-.73,3.32-1.14,4.97-5.53,22.3-15.97,42.66-30.11,59.87-.8.98-1.61,1.94-2.44,2.9,22.4.55,41.9-1.39,57.24-5.79.09-.02.18-.04.27-.07,1.07-.31,2.11-.63,3.13-.96,13.31-4.32,23.14-10.66,28.54-18.99,1.38-2.12,2.46-4.36,3.25-6.73.64-1.92,1.06-3.88,1.29-5.89,2.51-22.22-19.48-49.92-57.44-76.41Zm-305.43-86.16c-1.05.14-2.08.29-3.1.45-25.59,4.04-43.49,13.15-49.98,27.23-.46.98-.85,1.98-1.19,3-.92,2.76-1.4,5.62-1.47,8.58-.54,21.67,21.05,48.13,57.3,73.49-.1-1.27-.18-2.55-.24-3.83-.07-1.4-.12-2.8-.15-4.21-.03-1.11-.04-2.23-.04-3.35,0-5.47.29-10.87.86-16.21.27-2.54.6-5.07,1-7.57,4.08-26.06,14.75-49.93,30.25-69.85.67-.85,1.34-1.7,2.03-2.54,1.1-1.36,2.24-2.7,3.41-4.02.32-.38.65-.76.99-1.13.54-.61,1.08-1.21,1.63-1.8-15.17-.53-29.06.06-41.3,1.76Zm0,0c-1.05.14-2.08.29-3.1.45-25.59,4.04-43.49,13.15-49.98,27.23-.46.98-.85,1.98-1.19,3-.92,2.76-1.4,5.62-1.47,8.58-.54,21.67,21.05,48.13,57.3,73.49-.1-1.27-.18-2.55-.24-3.83-.07-1.4-.12-2.8-.15-4.21-.03-1.11-.04-2.23-.04-3.35,0-5.47.29-10.87.86-16.21.27-2.54.6-5.07,1-7.57,4.08-26.06,14.75-49.93,30.25-69.85.67-.85,1.34-1.7,2.03-2.54,1.1-1.36,2.24-2.7,3.41-4.02.32-.38.65-.76.99-1.13.54-.61,1.08-1.21,1.63-1.8-15.17-.53-29.06.06-41.3,1.76Zm305.43,86.16c.14,1.3.25,2.61.34,3.92.21,2.75.34,5.52.39,8.3.02.99.03,1.98.03,2.98,0,7.66-.57,15.19-1.66,22.54-.36,2.45-.78,4.89-1.26,7.3-.14.69-.28,1.38-.43,2.06-.35,1.67-.73,3.32-1.14,4.97-5.53,22.3-15.97,42.66-30.11,59.87-.8.98-1.61,1.94-2.44,2.9,22.4.55,41.9-1.39,57.24-5.79.09-.02.18-.04.27-.07,1.07-.31,2.11-.63,3.13-.96,13.31-4.32,23.14-10.66,28.54-18.99,1.38-2.12,2.46-4.36,3.25-6.73.64-1.92,1.06-3.88,1.29-5.89,2.51-22.22-19.48-49.92-57.44-76.41Zm0,0c.14,1.3.25,2.61.34,3.92.21,2.75.34,5.52.39,8.3.02.99.03,1.98.03,2.98,0,7.66-.57,15.19-1.66,22.54-.36,2.45-.78,4.89-1.26,7.3-.14.69-.28,1.38-.43,2.06-.35,1.67-.73,3.32-1.14,4.97-5.53,22.3-15.97,42.66-30.11,59.87-.8.98-1.61,1.94-2.44,2.9,22.4.55,41.9-1.39,57.24-5.79.09-.02.18-.04.27-.07,1.07-.31,2.11-.63,3.13-.96,13.31-4.32,23.14-10.66,28.54-18.99,1.38-2.12,2.46-4.36,3.25-6.73.64-1.92,1.06-3.88,1.29-5.89,2.51-22.22-19.48-49.92-57.44-76.41Zm-305.43-86.16c-1.05.14-2.08.29-3.1.45-25.59,4.04-43.49,13.15-49.98,27.23-.46.98-.85,1.98-1.19,3-.92,2.76-1.4,5.62-1.47,8.58-.54,21.67,21.05,48.13,57.3,73.49-.1-1.27-.18-2.55-.24-3.83-.07-1.4-.12-2.8-.15-4.21-.03-1.11-.04-2.23-.04-3.35,0-5.47.29-10.87.86-16.21.27-2.54.6-5.07,1-7.57,4.08-26.06,14.75-49.93,30.25-69.85.67-.85,1.34-1.7,2.03-2.54,1.1-1.36,2.24-2.7,3.41-4.02.32-.38.65-.76.99-1.13.54-.61,1.08-1.21,1.63-1.8-15.17-.53-29.06.06-41.3,1.76Zm0,0c-1.05.14-2.08.29-3.1.45-25.59,4.04-43.49,13.15-49.98,27.23-.46.98-.85,1.98-1.19,3-.92,2.76-1.4,5.62-1.47,8.58-.54,21.67,21.05,48.13,57.3,73.49-.1-1.27-.18-2.55-.24-3.83-.07-1.4-.12-2.8-.15-4.21-.03-1.11-.04-2.23-.04-3.35,0-5.47.29-10.87.86-16.21.27-2.54.6-5.07,1-7.57,4.08-26.06,14.75-49.93,30.25-69.85.67-.85,1.34-1.7,2.03-2.54,1.1-1.36,2.24-2.7,3.41-4.02.32-.38.65-.76.99-1.13.54-.61,1.08-1.21,1.63-1.8-15.17-.53-29.06.06-41.3,1.76Zm305.43,86.16c.14,1.3.25,2.61.34,3.92.21,2.75.34,5.52.39,8.3.02.99.03,1.98.03,2.98,0,7.66-.57,15.19-1.66,22.54-.36,2.45-.78,4.89-1.26,7.3-.14.69-.28,1.38-.43,2.06-.35,1.67-.73,3.32-1.14,4.97-5.53,22.3-15.97,42.66-30.11,59.87-.8.98-1.61,1.94-2.44,2.9,22.4.55,41.9-1.39,57.24-5.79.09-.02.18-.04.27-.07,1.07-.31,2.11-.63,3.13-.96,13.31-4.32,23.14-10.66,28.54-18.99,1.38-2.12,2.46-4.36,3.25-6.73.64-1.92,1.06-3.88,1.29-5.89,2.51-22.22-19.48-49.92-57.44-76.41Zm0,0c.14,1.3.25,2.61.34,3.92.21,2.75.34,5.52.39,8.3.02.99.03,1.98.03,2.98,0,7.66-.57,15.19-1.66,22.54-.36,2.45-.78,4.89-1.26,7.3-.14.69-.28,1.38-.43,2.06-.35,1.67-.73,3.32-1.14,4.97-5.53,22.3-15.97,42.66-30.11,59.87-.8.98-1.61,1.94-2.44,2.9,22.4.55,41.9-1.39,57.24-5.79.09-.02.18-.04.27-.07,1.07-.31,2.11-.63,3.13-.96,13.31-4.32,23.14-10.66,28.54-18.99,1.38-2.12,2.46-4.36,3.25-6.73.64-1.92,1.06-3.88,1.29-5.89,2.51-22.22-19.48-49.92-57.44-76.41Zm-305.43-86.16c-1.05.14-2.08.29-3.1.45-25.59,4.04-43.49,13.15-49.98,27.23-.46.98-.85,1.98-1.19,3-.92,2.76-1.4,5.62-1.47,8.58-.54,21.67,21.05,48.13,57.3,73.49-.1-1.27-.18-2.55-.24-3.83-.07-1.4-.12-2.8-.15-4.21-.03-1.11-.04-2.23-.04-3.35,0-5.47.29-10.87.86-16.21.27-2.54.6-5.07,1-7.57,4.08-26.06,14.75-49.93,30.25-69.85.67-.85,1.34-1.7,2.03-2.54,1.1-1.36,2.24-2.7,3.41-4.02.32-.38.65-.76.99-1.13.54-.61,1.08-1.21,1.63-1.8-15.17-.53-29.06.06-41.3,1.76Zm0,0c-1.05.14-2.08.29-3.1.45-25.59,4.04-43.49,13.15-49.98,27.23-.46.98-.85,1.98-1.19,3-.92,2.76-1.4,5.62-1.47,8.58-.54,21.67,21.05,48.13,57.3,73.49-.1-1.27-.18-2.55-.24-3.83-.07-1.4-.12-2.8-.15-4.21-.03-1.11-.04-2.23-.04-3.35,0-5.47.29-10.87.86-16.21.27-2.54.6-5.07,1-7.57,4.08-26.06,14.75-49.93,30.25-69.85.67-.85,1.34-1.7,2.03-2.54,1.1-1.36,2.24-2.7,3.41-4.02.32-.38.65-.76.99-1.13.54-.61,1.08-1.21,1.63-1.8-15.17-.53-29.06.06-41.3,1.76Zm305.43,86.16c.14,1.3.25,2.61.34,3.92.21,2.75.34,5.52.39,8.3.02.99.03,1.98.03,2.98,0,7.66-.57,15.19-1.66,22.54-.36,2.45-.78,4.89-1.26,7.3-.14.69-.28,1.38-.43,2.06-.35,1.67-.73,3.32-1.14,4.97-5.53,22.3-15.97,42.66-30.11,59.87-.8.98-1.61,1.94-2.44,2.9,22.4.55,41.9-1.39,57.24-5.79.09-.02.18-.04.27-.07,1.07-.31,2.11-.63,3.13-.96,13.31-4.32,23.14-10.66,28.54-18.99,1.38-2.12,2.46-4.36,3.25-6.73.64-1.92,1.06-3.88,1.29-5.89,2.51-22.22-19.48-49.92-57.44-76.41Zm0,0c.14,1.3.25,2.61.34,3.92.21,2.75.34,5.52.39,8.3.02.99.03,1.98.03,2.98,0,7.66-.57,15.19-1.66,22.54-.36,2.45-.78,4.89-1.26,7.3-.14.69-.28,1.38-.43,2.06-.35,1.67-.73,3.32-1.14,4.97-5.53,22.3-15.97,42.66-30.11,59.87-.8.98-1.61,1.94-2.44,2.9,22.4.55,41.9-1.39,57.24-5.79.09-.02.18-.04.27-.07,1.07-.31,2.11-.63,3.13-.96,13.31-4.32,23.14-10.66,28.54-18.99,1.38-2.12,2.46-4.36,3.25-6.73.64-1.92,1.06-3.88,1.29-5.89,2.51-22.22-19.48-49.92-57.44-76.41Zm-305.43-86.16c-1.05.14-2.08.29-3.1.45-25.59,4.04-43.49,13.15-49.98,27.23-.46.98-.85,1.98-1.19,3-.92,2.76-1.4,5.62-1.47,8.58-.54,21.67,21.05,48.13,57.3,73.49-.1-1.27-.18-2.55-.24-3.83-.07-1.4-.12-2.8-.15-4.21-.03-1.11-.04-2.23-.04-3.35,0-5.47.29-10.87.86-16.21.27-2.54.6-5.07,1-7.57,4.08-26.06,14.75-49.93,30.25-69.85.67-.85,1.34-1.7,2.03-2.54,1.1-1.36,2.24-2.7,3.41-4.02.32-.38.65-.76.99-1.13.54-.61,1.08-1.21,1.63-1.8-15.17-.53-29.06.06-41.3,1.76Zm0,0c-1.05.14-2.08.29-3.1.45-25.59,4.04-43.49,13.15-49.98,27.23-.46.98-.85,1.98-1.19,3-.92,2.76-1.4,5.62-1.47,8.58-.54,21.67,21.05,48.13,57.3,73.49-.1-1.27-.18-2.55-.24-3.83-.07-1.4-.12-2.8-.15-4.21-.03-1.11-.04-2.23-.04-3.35,0-5.47.29-10.87.86-16.21.27-2.54.6-5.07,1-7.57,4.08-26.06,14.75-49.93,30.25-69.85.67-.85,1.34-1.7,2.03-2.54,1.1-1.36,2.24-2.7,3.41-4.02.32-.38.65-.76.99-1.13.54-.61,1.08-1.21,1.63-1.8-15.17-.53-29.06.06-41.3,1.76Zm305.43,86.16c.14,1.3.25,2.61.34,3.92.21,2.75.34,5.52.39,8.3.02.99.03,1.98.03,2.98,0,7.66-.57,15.19-1.66,22.54-.36,2.45-.78,4.89-1.26,7.3-.14.69-.28,1.38-.43,2.06-.35,1.67-.73,3.32-1.14,4.97-5.53,22.3-15.97,42.66-30.11,59.87-.8.98-1.61,1.94-2.44,2.9,22.4.55,41.9-1.39,57.24-5.79.09-.02.18-.04.27-.07,1.07-.31,2.11-.63,3.13-.96,13.31-4.32,23.14-10.66,28.54-18.99,1.38-2.12,2.46-4.36,3.25-6.73.64-1.92,1.06-3.88,1.29-5.89,2.51-22.22-19.48-49.92-57.44-76.41Zm0,0c.14,1.3.25,2.61.34,3.92.21,2.75.34,5.52.39,8.3.02.99.03,1.98.03,2.98,0,7.66-.57,15.19-1.66,22.54-.36,2.45-.78,4.89-1.26,7.3-.14.69-.28,1.38-.43,2.06-.35,1.67-.73,3.32-1.14,4.97-5.53,22.3-15.97,42.66-30.11,59.87-.8.98-1.61,1.94-2.44,2.9,22.4.55,41.9-1.39,57.24-5.79.09-.02.18-.04.27-.07,1.07-.31,2.11-.63,3.13-.96,13.31-4.32,23.14-10.66,28.54-18.99,1.38-2.12,2.46-4.36,3.25-6.73.64-1.92,1.06-3.88,1.29-5.89,2.51-22.22-19.48-49.92-57.44-76.41Zm-305.43-86.16c-1.05.14-2.08.29-3.1.45-25.59,4.04-43.49,13.15-49.98,27.23-.46.98-.85,1.98-1.19,3-.92,2.76-1.4,5.62-1.47,8.58-.54,21.67,21.05,48.13,57.3,73.49-.1-1.27-.18-2.55-.24-3.83-.07-1.4-.12-2.8-.15-4.21-.03-1.11-.04-2.23-.04-3.35,0-5.47.29-10.87.86-16.21.27-2.54.6-5.07,1-7.57,4.08-26.06,14.75-49.93,30.25-69.85.67-.85,1.34-1.7,2.03-2.54,1.1-1.36,2.24-2.7,3.41-4.02.32-.38.65-.76.99-1.13.54-.61,1.08-1.21,1.63-1.8-15.17-.53-29.06.06-41.3,1.76ZM320,0C143.27,0,0,143.27,0,320s143.27,320,320,320,320-143.27,320-320S496.73,0,320,0Zm296.78,410.82c-.24,2.75-.79,5.43-1.65,8.03-1.05,3.18-2.55,6.17-4.47,8.98-12.17,17.84-41.29,28.18-81.54,31.01-12.1.86-25.2,1.04-39.16.53-3.93-.13-7.93-.33-12-.58-1.06-.07-2.13-.14-3.2-.21-21.87-1.48-45.53-4.49-70.45-9.05-1.23.82-2.46,1.62-3.71,2.41-20.2,12.69-43.58,20.78-68.67,22.8-4.08.32-8.22.49-12.38.49-2.33,0-4.65-.05-6.95-.16-17.35-.77-33.95-4.45-49.32-10.56-.37-.15-.74-.3-1.11-.45-15.84-6.42-30.35-15.44-43.01-26.53-3.89-3.39-7.6-6.99-11.12-10.76-13.09-14.01-23.57-30.5-30.65-48.68-.53-1.34-1.03-2.7-1.52-4.06-28.67-14.12-54.29-29-76.01-44.01-11.49-7.94-21.88-15.91-31.06-23.82-30.53-26.33-47.61-52.01-46.59-73.57.15-3.31.73-6.53,1.76-9.64.34-1.02.72-2.01,1.15-2.99,9.32-21.41,39.95-33.73,84.12-36.96,12.06-.88,25.13-1.09,39.06-.61,10.05.34,20.53,1.04,31.41,2.09.17.02.35.03.52.05.78.08,1.56.15,2.35.24,17.92,1.81,36.84,4.58,56.53,8.3,1.27-.81,2.57-1.58,3.87-2.32.51-.31,1.02-.6,1.53-.89,3.35-1.91,6.79-3.69,10.3-5.34,3.22-1.5,6.49-2.9,9.83-4.19,1.66-.65,3.34-1.26,5.04-1.85,15.63-5.4,32.4-8.33,49.87-8.33,7.75,0,15.37.58,22.82,1.7,16.79,2.52,32.69,7.77,47.22,15.3,31.35,16.23,56.34,43.02,70.28,75.66.59,1.37,1.16,2.75,1.7,4.14,29.36,14.37,55.57,29.55,77.72,44.86,11.44,7.91,21.8,15.85,30.95,23.74,31.34,27,48.53,53.33,46.54,75.23Zm-336.45,98.73c-2.05,5.61-8.25,8.5-13.86,6.46-5.61-2.04-8.5-8.24-6.46-13.85,2.04-5.62,8.24-8.51,13.85-6.47,5.62,2.05,8.51,8.25,6.47,13.86Zm-22.26-40.22c-6.73,6.61-16.91,9.17-26.36,5.73-13.12-4.78-19.88-19.28-15.1-32.39.04-.1.08-.21.12-.31,12.14,11.1,26.08,20.25,41.34,26.97Zm58.16-334.76c2.31-6.35,9.33-9.63,15.68-7.32,6.36,2.31,9.63,9.34,7.32,15.69-2.31,6.35-9.34,9.63-15.69,7.32-6.35-2.31-9.63-9.34-7.31-15.69Zm30.09,31.96c6.72-6.95,17.15-9.71,26.82-6.19,9.3,3.39,15.41,11.66,16.47,20.86-13.39-6.94-27.95-11.95-43.29-14.67Zm-26.77-97.3c138.71,0,251.15,112.44,251.15,251.15,0,1.78-.02,3.56-.06,5.33-9.51-7.88-20.2-15.8-31.95-23.66-9.31-112.87-103.86-201.57-219.14-201.57-66.45,0-126.02,29.47-166.34,76.06-14.19-.58-27.51-.46-39.81.35,45.38-65.08,120.79-107.66,206.15-107.66Zm0,502.3c-138.71,0-251.15-112.44-251.15-251.15,0-2.2.03-4.4.09-6.59,9.41,8.06,20.07,16.18,31.86,24.25,8.99,113.19,103.69,202.24,219.2,202.24,65.55,0,124.39-28.68,164.67-74.16,1.93.11,3.84.19,5.74.25,12.05.44,23.45.37,34.13-.22-45.54,63.8-120.18,105.38-204.54,105.38Zm151.77-264.02c.14,1.3.25,2.61.34,3.92.21,2.75.34,5.52.39,8.3.02.99.03,1.98.03,2.98,0,7.66-.57,15.19-1.66,22.54-.36,2.45-.78,4.89-1.26,7.3-.14.69-.28,1.38-.43,2.06-.35,1.67-.73,3.32-1.14,4.97-5.53,22.3-15.97,42.66-30.11,59.87-.8.98-1.61,1.94-2.44,2.9,22.4.55,41.9-1.39,57.24-5.79.09-.02.18-.04.27-.07,1.07-.31,2.11-.63,3.13-.96,13.31-4.32,23.14-10.66,28.54-18.99,1.38-2.12,2.46-4.36,3.25-6.73.64-1.92,1.06-3.88,1.29-5.89,2.51-22.22-19.48-49.92-57.44-76.41Zm-305.43-86.16c-1.05.14-2.08.29-3.1.45-25.59,4.04-43.49,13.15-49.98,27.23-.46.98-.85,1.98-1.19,3-.92,2.76-1.4,5.62-1.47,8.58-.54,21.67,21.05,48.13,57.3,73.49-.1-1.27-.18-2.55-.24-3.83-.07-1.4-.12-2.8-.15-4.21-.03-1.11-.04-2.23-.04-3.35,0-5.47.29-10.87.86-16.21.27-2.54.6-5.07,1-7.57,4.08-26.06,14.75-49.93,30.25-69.85.67-.85,1.34-1.7,2.03-2.54,1.1-1.36,2.24-2.7,3.41-4.02.32-.38.65-.76.99-1.13.54-.61,1.08-1.21,1.63-1.8-15.17-.53-29.06.06-41.3,1.76Zm0,0c-1.05.14-2.08.29-3.1.45-25.59,4.04-43.49,13.15-49.98,27.23-.46.98-.85,1.98-1.19,3-.92,2.76-1.4,5.62-1.47,8.58-.54,21.67,21.05,48.13,57.3,73.49-.1-1.27-.18-2.55-.24-3.83-.07-1.4-.12-2.8-.15-4.21-.03-1.11-.04-2.23-.04-3.35,0-5.47.29-10.87.86-16.21.27-2.54.6-5.07,1-7.57,4.08-26.06,14.75-49.93,30.25-69.85.67-.85,1.34-1.7,2.03-2.54,1.1-1.36,2.24-2.7,3.41-4.02.32-.38.65-.76.99-1.13.54-.61,1.08-1.21,1.63-1.8-15.17-.53-29.06.06-41.3,1.76Zm305.43,86.16c.14,1.3.25,2.61.34,3.92.21,2.75.34,5.52.39,8.3.02.99.03,1.98.03,2.98,0,7.66-.57,15.19-1.66,22.54-.36,2.45-.78,4.89-1.26,7.3-.14.69-.28,1.38-.43,2.06-.35,1.67-.73,3.32-1.14,4.97-5.53,22.3-15.97,42.66-30.11,59.87-.8.98-1.61,1.94-2.44,2.9,22.4.55,41.9-1.39,57.24-5.79.09-.02.18-.04.27-.07,1.07-.31,2.11-.63,3.13-.96,13.31-4.32,23.14-10.66,28.54-18.99,1.38-2.12,2.46-4.36,3.25-6.73.64-1.92,1.06-3.88,1.29-5.89,2.51-22.22-19.48-49.92-57.44-76.41Zm0,0c.14,1.3.25,2.61.34,3.92.21,2.75.34,5.52.39,8.3.02.99.03,1.98.03,2.98,0,7.66-.57,15.19-1.66,22.54-.36,2.45-.78,4.89-1.26,7.3-.14.69-.28,1.38-.43,2.06-.35,1.67-.73,3.32-1.14,4.97-5.53,22.3-15.97,42.66-30.11,59.87-.8.98-1.61,1.94-2.44,2.9,22.4.55,41.9-1.39,57.24-5.79.09-.02.18-.04.27-.07,1.07-.31,2.11-.63,3.13-.96,13.31-4.32,23.14-10.66,28.54-18.99,1.38-2.12,2.46-4.36,3.25-6.73.64-1.92,1.06-3.88,1.29-5.89,2.51-22.22-19.48-49.92-57.44-76.41Zm-305.43-86.16c-1.05.14-2.08.29-3.1.45-25.59,4.04-43.49,13.15-49.98,27.23-.46.98-.85,1.98-1.19,3-.92,2.76-1.4,5.62-1.47,8.58-.54,21.67,21.05,48.13,57.3,73.49-.1-1.27-.18-2.55-.24-3.83-.07-1.4-.12-2.8-.15-4.21-.03-1.11-.04-2.23-.04-3.35,0-5.47.29-10.87.86-16.21.27-2.54.6-5.07,1-7.57,4.08-26.06,14.75-49.93,30.25-69.85.67-.85,1.34-1.7,2.03-2.54,1.1-1.36,2.24-2.7,3.41-4.02.32-.38.65-.76.99-1.13.54-.61,1.08-1.21,1.63-1.8-15.17-.53-29.06.06-41.3,1.76Zm0,0c-1.05.14-2.08.29-3.1.45-25.59,4.04-43.49,13.15-49.98,27.23-.46.98-.85,1.98-1.19,3-.92,2.76-1.4,5.62-1.47,8.58-.54,21.67,21.05,48.13,57.3,73.49-.1-1.27-.18-2.55-.24-3.83-.07-1.4-.12-2.8-.15-4.21-.03-1.11-.04-2.23-.04-3.35,0-5.47.29-10.87.86-16.21.27-2.54.6-5.07,1-7.57,4.08-26.06,14.75-49.93,30.25-69.85.67-.85,1.34-1.7,2.03-2.54,1.1-1.36,2.24-2.7,3.41-4.02.32-.38.65-.76.99-1.13.54-.61,1.08-1.21,1.63-1.8-15.17-.53-29.06.06-41.3,1.76Zm305.43,86.16c.14,1.3.25,2.61.34,3.92.21,2.75.34,5.52.39,8.3.02.99.03,1.98.03,2.98,0,7.66-.57,15.19-1.66,22.54-.36,2.45-.78,4.89-1.26,7.3-.14.69-.28,1.38-.43,2.06-.35,1.67-.73,3.32-1.14,4.97-5.53,22.3-15.97,42.66-30.11,59.87-.8.98-1.61,1.94-2.44,2.9,22.4.55,41.9-1.39,57.24-5.79.09-.02.18-.04.27-.07,1.07-.31,2.11-.63,3.13-.96,13.31-4.32,23.14-10.66,28.54-18.99,1.38-2.12,2.46-4.36,3.25-6.73.64-1.92,1.06-3.88,1.29-5.89,2.51-22.22-19.48-49.92-57.44-76.41Zm0,0c.14,1.3.25,2.61.34,3.92.21,2.75.34,5.52.39,8.3.02.99.03,1.98.03,2.98,0,7.66-.57,15.19-1.66,22.54-.36,2.45-.78,4.89-1.26,7.3-.14.69-.28,1.38-.43,2.06-.35,1.67-.73,3.32-1.14,4.97-5.53,22.3-15.97,42.66-30.11,59.87-.8.98-1.61,1.94-2.44,2.9,22.4.55,41.9-1.39,57.24-5.79.09-.02.18-.04.27-.07,1.07-.31,2.11-.63,3.13-.96,13.31-4.32,23.14-10.66,28.54-18.99,1.38-2.12,2.46-4.36,3.25-6.73.64-1.92,1.06-3.88,1.29-5.89,2.51-22.22-19.48-49.92-57.44-76.41Zm-305.43-86.16c-1.05.14-2.08.29-3.1.45-25.59,4.04-43.49,13.15-49.98,27.23-.46.98-.85,1.98-1.19,3-.92,2.76-1.4,5.62-1.47,8.58-.54,21.67,21.05,48.13,57.3,73.49-.1-1.27-.18-2.55-.24-3.83-.07-1.4-.12-2.8-.15-4.21-.03-1.11-.04-2.23-.04-3.35,0-5.47.29-10.87.86-16.21.27-2.54.6-5.07,1-7.57,4.08-26.06,14.75-49.93,30.25-69.85.67-.85,1.34-1.7,2.03-2.54,1.1-1.36,2.24-2.7,3.41-4.02.32-.38.65-.76.99-1.13.54-.61,1.08-1.21,1.63-1.8-15.17-.53-29.06.06-41.3,1.76Zm0,0c-1.05.14-2.08.29-3.1.45-25.59,4.04-43.49,13.15-49.98,27.23-.46.98-.85,1.98-1.19,3-.92,2.76-1.4,5.62-1.47,8.58-.54,21.67,21.05,48.13,57.3,73.49-.1-1.27-.18-2.55-.24-3.83-.07-1.4-.12-2.8-.15-4.21-.03-1.11-.04-2.23-.04-3.35,0-5.47.29-10.87.86-16.21.27-2.54.6-5.07,1-7.57,4.08-26.06,14.75-49.93,30.25-69.85.67-.85,1.34-1.7,2.03-2.54,1.1-1.36,2.24-2.7,3.41-4.02.32-.38.65-.76.99-1.13.54-.61,1.08-1.21,1.63-1.8-15.17-.53-29.06.06-41.3,1.76Zm305.43,86.16c.14,1.3.25,2.61.34,3.92.21,2.75.34,5.52.39,8.3.02.99.03,1.98.03,2.98,0,7.66-.57,15.19-1.66,22.54-.36,2.45-.78,4.89-1.26,7.3-.14.69-.28,1.38-.43,2.06-.35,1.67-.73,3.32-1.14,4.97-5.53,22.3-15.97,42.66-30.11,59.87-.8.98-1.61,1.94-2.44,2.9,22.4.55,41.9-1.39,57.24-5.79.09-.02.18-.04.27-.07,1.07-.31,2.11-.63,3.13-.96,13.31-4.32,23.14-10.66,28.54-18.99,1.38-2.12,2.46-4.36,3.25-6.73.64-1.92,1.06-3.88,1.29-5.89,2.51-22.22-19.48-49.92-57.44-76.41Zm0,0c.14,1.3.25,2.61.34,3.92.21,2.75.34,5.52.39,8.3.02.99.03,1.98.03,2.98,0,7.66-.57,15.19-1.66,22.54-.36,2.45-.78,4.89-1.26,7.3-.14.69-.28,1.38-.43,2.06-.35,1.67-.73,3.32-1.14,4.97-5.53,22.3-15.97,42.66-30.11,59.87-.8.98-1.61,1.94-2.44,2.9,22.4.55,41.9-1.39,57.24-5.79.09-.02.18-.04.27-.07,1.07-.31,2.11-.63,3.13-.96,13.31-4.32,23.14-10.66,28.54-18.99,1.38-2.12,2.46-4.36,3.25-6.73.64-1.92,1.06-3.88,1.29-5.89,2.51-22.22-19.48-49.92-57.44-76.41Zm-305.43-86.16c-1.05.14-2.08.29-3.1.45-25.59,4.04-43.49,13.15-49.98,27.23-.46.98-.85,1.98-1.19,3-.92,2.76-1.4,5.62-1.47,8.58-.54,21.67,21.05,48.13,57.3,73.49-.1-1.27-.18-2.55-.24-3.83-.07-1.4-.12-2.8-.15-4.21-.03-1.11-.04-2.23-.04-3.35,0-5.47.29-10.87.86-16.21.27-2.54.6-5.07,1-7.57,4.08-26.06,14.75-49.93,30.25-69.85.67-.85,1.34-1.7,2.03-2.54,1.1-1.36,2.24-2.7,3.41-4.02.32-.38.65-.76.99-1.13.54-.61,1.08-1.21,1.63-1.8-15.17-.53-29.06.06-41.3,1.76Zm0,0c-1.05.14-2.08.29-3.1.45-25.59,4.04-43.49,13.15-49.98,27.23-.46.98-.85,1.98-1.19,3-.92,2.76-1.4,5.62-1.47,8.58-.54,21.67,21.05,48.13,57.3,73.49-.1-1.27-.18-2.55-.24-3.83-.07-1.4-.12-2.8-.15-4.21-.03-1.11-.04-2.23-.04-3.35,0-5.47.29-10.87.86-16.21.27-2.54.6-5.07,1-7.57,4.08-26.06,14.75-49.93,30.25-69.85.67-.85,1.34-1.7,2.03-2.54,1.1-1.36,2.24-2.7,3.41-4.02.32-.38.65-.76.99-1.13.54-.61,1.08-1.21,1.63-1.8-15.17-.53-29.06.06-41.3,1.76Zm305.43,86.16c.14,1.3.25,2.61.34,3.92.21,2.75.34,5.52.39,8.3.02.99.03,1.98.03,2.98,0,7.66-.57,15.19-1.66,22.54-.36,2.45-.78,4.89-1.26,7.3-.14.69-.28,1.38-.43,2.06-.35,1.67-.73,3.32-1.14,4.97-5.53,22.3-15.97,42.66-30.11,59.87-.8.98-1.61,1.94-2.44,2.9,22.4.55,41.9-1.39,57.24-5.79.09-.02.18-.04.27-.07,1.07-.31,2.11-.63,3.13-.96,13.31-4.32,23.14-10.66,28.54-18.99,1.38-2.12,2.46-4.36,3.25-6.73.64-1.92,1.06-3.88,1.29-5.89,2.51-22.22-19.48-49.92-57.44-76.41Zm0,0c.14,1.3.25,2.61.34,3.92.21,2.75.34,5.52.39,8.3.02.99.03,1.98.03,2.98,0,7.66-.57,15.19-1.66,22.54-.36,2.45-.78,4.89-1.26,7.3-.14.69-.28,1.38-.43,2.06-.35,1.67-.73,3.32-1.14,4.97-5.53,22.3-15.97,42.66-30.11,59.87-.8.98-1.61,1.94-2.44,2.9,22.4.55,41.9-1.39,57.24-5.79.09-.02.18-.04.27-.07,1.07-.31,2.11-.63,3.13-.96,13.31-4.32,23.14-10.66,28.54-18.99,1.38-2.12,2.46-4.36,3.25-6.73.64-1.92,1.06-3.88,1.29-5.89,2.51-22.22-19.48-49.92-57.44-76.41Zm-305.43-86.16c-1.05.14-2.08.29-3.1.45-25.59,4.04-43.49,13.15-49.98,27.23-.46.98-.85,1.98-1.19,3-.92,2.76-1.4,5.62-1.47,8.58-.54,21.67,21.05,48.13,57.3,73.49-.1-1.27-.18-2.55-.24-3.83-.07-1.4-.12-2.8-.15-4.21-.03-1.11-.04-2.23-.04-3.35,0-5.47.29-10.87.86-16.21.27-2.54.6-5.07,1-7.57,4.08-26.06,14.75-49.93,30.25-69.85.67-.85,1.34-1.7,2.03-2.54,1.1-1.36,2.24-2.7,3.41-4.02.32-.38.65-.76.99-1.13.54-.61,1.08-1.21,1.63-1.8-15.17-.53-29.06.06-41.3,1.76Zm0,0c-1.05.14-2.08.29-3.1.45-25.59,4.04-43.49,13.15-49.98,27.23-.46.98-.85,1.98-1.19,3-.92,2.76-1.4,5.62-1.47,8.58-.54,21.67,21.05,48.13,57.3,73.49-.1-1.27-.18-2.55-.24-3.83-.07-1.4-.12-2.8-.15-4.21-.03-1.11-.04-2.23-.04-3.35,0-5.47.29-10.87.86-16.21.27-2.54.6-5.07,1-7.57,4.08-26.06,14.75-49.93,30.25-69.85.67-.85,1.34-1.7,2.03-2.54,1.1-1.36,2.24-2.7,3.41-4.02.32-.38.65-.76.99-1.13.54-.61,1.08-1.21,1.63-1.8-15.17-.53-29.06.06-41.3,1.76Zm0,0c-1.05.14-2.08.29-3.1.45-25.59,4.04-43.49,13.15-49.98,27.23-.46.98-.85,1.98-1.19,3-.92,2.76-1.4,5.62-1.47,8.58-.54,21.67,21.05,48.13,57.3,73.49-.1-1.27-.18-2.55-.24-3.83-.07-1.4-.12-2.8-.15-4.21-.03-1.11-.04-2.23-.04-3.35,0-5.47.29-10.87.86-16.21.27-2.54.6-5.07,1-7.57,4.08-26.06,14.75-49.93,30.25-69.85.67-.85,1.34-1.7,2.03-2.54,1.1-1.36,2.24-2.7,3.41-4.02.32-.38.65-.76.99-1.13.54-.61,1.08-1.21,1.63-1.8-15.17-.53-29.06.06-41.3,1.76Z"/>
  <path id="_ЦВЕТ-2" data-name="ЦВЕТ" class="cls-1" d="m481.11,310.88c-3.29-2.46-6.71-4.91-10.24-7.33.04.28.08.55.11.83.13,1.04.24,2.08.34,3.13.14,1.3.25,2.61.34,3.92,1.99,1.4,3.95,2.82,5.86,4.25,31.41,23.49,48.44,46.31,48.44,64.69,0,1.09-.06,2.16-.18,3.21-.21,1.86-.59,3.59-1.16,5.28-.7,2.12-1.68,4.15-2.92,6.05-4.91,7.58-13.98,13.56-26.94,17.77-1,.32-2.01.63-3.12.95l-.19.05c-14.79,4.24-33.15,6.13-53.97,5.77-40.7-.68-90.75-9.92-141.7-26.8-49.53-16.41-94.99-38.48-128.57-62.38-1.18-.84-2.35-1.68-3.5-2.53-33.08-24.28-51.04-48.09-50.56-67.06.06-2.68.51-5.27,1.32-7.7.32-.97.66-1.84,1.06-2.69,5.85-12.7,22.36-21.52,47.72-25.53,1-.15,2.01-.3,3.05-.44,9.23-1.28,19.34-1.91,30.16-1.91,2.66,0,5.36.04,8.11.11.32-.38.65-.76.99-1.13.54-.61,1.08-1.21,1.63-1.8.88-.97,1.78-1.93,2.68-2.87-16.21-.7-31.18-.17-44.38,1.66-1.07.14-2.12.29-3.17.46-27.44,4.33-45.51,14.34-52.23,28.91-.49,1.05-.92,2.14-1.32,3.33-1,3-1.54,6.18-1.62,9.45-.53,20.99,18.3,46.58,53.01,72.04,34.38,25.24,81.88,48.6,133.74,65.78,53.53,17.73,106.24,27.11,148.52,27.11,19.36,0,36.54-1.97,50.6-5.99.15-.04.29-.07.37-.1,1.1-.32,2.17-.65,3.22-.99,14.31-4.64,24.44-11.44,30.12-20.2,1.51-2.32,2.72-4.82,3.59-7.42.68-2.07,1.16-4.25,1.42-6.5,2.39-21.11-15.59-47.17-50.63-73.38Zm0,0c-3.29-2.46-6.71-4.91-10.24-7.33.04.28.08.55.11.83.13,1.04.24,2.08.34,3.13.14,1.3.25,2.61.34,3.92,1.99,1.4,3.95,2.82,5.86,4.25,31.41,23.49,48.44,46.31,48.44,64.69,0,1.09-.06,2.16-.18,3.21-.21,1.86-.59,3.59-1.16,5.28-.7,2.12-1.68,4.15-2.92,6.05-4.91,7.58-13.98,13.56-26.94,17.77-1,.32-2.01.63-3.12.95l-.19.05c-14.79,4.24-33.15,6.13-53.97,5.77-40.7-.68-90.75-9.92-141.7-26.8-49.53-16.41-94.99-38.48-128.57-62.38-1.18-.84-2.35-1.68-3.5-2.53-33.08-24.28-51.04-48.09-50.56-67.06.06-2.68.51-5.27,1.32-7.7.32-.97.66-1.84,1.06-2.69,5.85-12.7,22.36-21.52,47.72-25.53,1-.15,2.01-.3,3.05-.44,9.23-1.28,19.34-1.91,30.16-1.91,2.66,0,5.36.04,8.11.11.32-.38.65-.76.99-1.13.54-.61,1.08-1.21,1.63-1.8.88-.97,1.78-1.93,2.68-2.87-16.21-.7-31.18-.17-44.38,1.66-1.07.14-2.12.29-3.17.46-27.44,4.33-45.51,14.34-52.23,28.91-.49,1.05-.92,2.14-1.32,3.33-1,3-1.54,6.18-1.62,9.45-.53,20.99,18.3,46.58,53.01,72.04,34.38,25.24,81.88,48.6,133.74,65.78,53.53,17.73,106.24,27.11,148.52,27.11,19.36,0,36.54-1.97,50.6-5.99.15-.04.29-.07.37-.1,1.1-.32,2.17-.65,3.22-.99,14.31-4.64,24.44-11.44,30.12-20.2,1.51-2.32,2.72-4.82,3.59-7.42.68-2.07,1.16-4.25,1.42-6.5,2.39-21.11-15.59-47.17-50.63-73.38Zm91.09,22.44c-9.18-7.91-19.67-15.97-31.2-23.94-23.44-16.19-50.93-31.91-81.13-46.53.59,1.37,1.16,2.75,1.7,4.14.54,1.37,1.06,2.74,1.55,4.13,27.62,13.66,52.8,28.23,74.46,43.2,5.68,3.92,11.1,7.87,16.23,11.8s9.97,7.86,14.47,11.74c31.62,27.24,47.36,52.38,45.51,72.7-.22,2.51-.73,4.98-1.51,7.35-.94,2.86-2.32,5.63-4.1,8.23-11.31,16.58-38.72,26.86-79.27,29.71-11.98.85-25.05,1.03-38.85.52-3.7-.12-7.59-.31-11.9-.57l-3.2-.21c-56.4-3.82-121.08-17.38-187.03-39.24-71.67-23.74-137.85-55.28-186.36-88.8-11.36-7.85-21.73-15.79-30.81-23.62-30.75-26.52-46.5-51.13-45.55-71.16.14-3.05.68-6.03,1.61-8.83.31-.95.66-1.84,1.05-2.74,8.47-19.45,37.44-31.94,81.59-35.17,7.78-.57,16-.85,24.58-.85,4.62,0,9.35.08,14.16.25,9.91.33,20.41,1.03,31.16,2.07.12.01.24.02.36.03l1.02.11c.5.04,1,.09,1.54.15,17.1,1.74,34.88,4.31,53.14,7.68,1.02-.68,2.05-1.35,3.09-2,.2-.12.4-.25.6-.36,1.27-.81,2.57-1.58,3.87-2.32-20.68-4-40.8-7.01-60.06-8.96-.53-.06-1.06-.11-1.59-.17l-.75-.07c-.12-.01-.24-.02-.36-.03l-.22-.03c-10.94-1.05-21.57-1.76-31.6-2.1-13.94-.48-27.19-.27-39.38.62-47.15,3.45-77.12,16.85-86.65,38.74-.46,1.07-.87,2.13-1.25,3.26-1.1,3.33-1.74,6.84-1.91,10.44-1.03,21.94,15.43,48.22,47.63,75.98,9.25,7.97,19.78,16.05,31.31,24.02,22.94,15.84,49.77,31.25,79.24,45.6,33.44,16.3,70.28,31.24,108.66,43.96,39.09,12.95,77.75,23.02,114.55,29.89,25.72,4.8,50.54,8.05,73.96,9.63l3.22.21c4.38.27,8.33.46,12.07.59,5.19.19,10.27.28,15.24.28,8.45,0,16.56-.27,24.24-.82,42.44-2.98,71.42-14.16,83.81-32.31,2.09-3.06,3.72-6.33,4.84-9.73.93-2.8,1.53-5.73,1.79-8.7,2.03-22.32-14.42-49.21-47.57-77.77Zm-91.09-22.44c-3.29-2.46-6.71-4.91-10.24-7.33.04.28.08.55.11.83.13,1.04.24,2.08.34,3.13.14,1.3.25,2.61.34,3.92,1.99,1.4,3.95,2.82,5.86,4.25,31.41,23.49,48.44,46.31,48.44,64.69,0,1.09-.06,2.16-.18,3.21-.21,1.86-.59,3.59-1.16,5.28-.7,2.12-1.68,4.15-2.92,6.05-4.91,7.58-13.98,13.56-26.94,17.77-1,.32-2.01.63-3.12.95l-.19.05c-14.79,4.24-33.15,6.13-53.97,5.77-40.7-.68-90.75-9.92-141.7-26.8-49.53-16.41-94.99-38.48-128.57-62.38-1.18-.84-2.35-1.68-3.5-2.53-33.08-24.28-51.04-48.09-50.56-67.06.06-2.68.51-5.27,1.32-7.7.32-.97.66-1.84,1.06-2.69,5.85-12.7,22.36-21.52,47.72-25.53,1-.15,2.01-.3,3.05-.44,9.23-1.28,19.34-1.91,30.16-1.91,2.66,0,5.36.04,8.11.11.32-.38.65-.76.99-1.13.54-.61,1.08-1.21,1.63-1.8.88-.97,1.78-1.93,2.68-2.87-16.21-.7-31.18-.17-44.38,1.66-1.07.14-2.12.29-3.17.46-27.44,4.33-45.51,14.34-52.23,28.91-.49,1.05-.92,2.14-1.32,3.33-1,3-1.54,6.18-1.62,9.45-.53,20.99,18.3,46.58,53.01,72.04,34.38,25.24,81.88,48.6,133.74,65.78,53.53,17.73,106.24,27.11,148.52,27.11,19.36,0,36.54-1.97,50.6-5.99.15-.04.29-.07.37-.1,1.1-.32,2.17-.65,3.22-.99,14.31-4.64,24.44-11.44,30.12-20.2,1.51-2.32,2.72-4.82,3.59-7.42.68-2.07,1.16-4.25,1.42-6.5,2.39-21.11-15.59-47.17-50.63-73.38Z"/>
</svg>